<svg id="Ebene_1" xmlns="http://www.w3.org/2000/svg" xmlns:xlink="http://www.w3.org/1999/xlink" viewBox="0 0 286.1 69.4"><style>.st0,.st1{clip-path:url(#SVGID_2_);fill:#00795d}.st1{fill:#65b32e}</style><defs><path id="SVGID_1_" d="M0 0h286.1v69.4H0z"/></defs><clipPath id="SVGID_2_"><use xlink:href="#SVGID_1_" overflow="visible"/></clipPath><path class="st0" d="M154.1 0c-4.7 0-8.2 3.8-8.2 8.5s3.7 8.4 8.4 8.4 8.5-3.7 8.5-8.4-4-8.5-8.7-8.5M26 41l-5.4-2c-3.7-1.4-6-2.2-6-4.4 0-1.9 1.6-2.8 4.6-2.8 4 0 10.1 1.3 13.7 2.1l1.8-10.5c-4-.9-10.8-2.4-17.8-2.4C7.3 21 0 26.4 0 35.9c0 7.7 4.4 10.9 12.1 13.7l4.6 1.7c4.1 1.5 5.3 2 5.3 4.1 0 2.5-2.9 2.9-5.4 2.9-4.4 0-10.4-1.4-14.1-2l-2 11c4 .9 11.3 2.1 17.4 2.1 12.5 0 18.8-5.5 18.8-14.2 0-5.5-2-10.9-10.7-14.2M64.3 21.3c-6.7 0-13.5.8-19.5 2.1l1.8 10.5c4-.8 9.3-1.6 12.9-1.6 6.4 0 7.7 1.7 7.7 5.9V40c-2.5-.1-4.8-.3-7.5-.3-10.3 0-18.4 5.8-18.4 16.2 0 9.6 6.6 13.5 13.8 13.5 5.4 0 9.5-2.8 12.9-5.2l1.3 4.6H82V39.7c.2-14.3-7.9-18.4-17.7-18.4m2.9 34.6c-2.4 1.6-4.8 2.4-7.2 2.4-2.6 0-4.8-1.1-4.8-3.8 0-4.6 3.8-5.2 7.4-5.2 1.5 0 2.9.1 4.6.2v6.4zM141.3 32.7h5.8v36.1h15.1V21.9h-20.9zM121.3 21.1c-7.7 0-13 3.7-16.8 6.4l-1.4-5.6h-12v46.9h15.1V38.4c1.8-1.9 5.4-3.6 8.2-3.6 2.9 0 4.9.9 4.9 5.4v28.6h15.1V37.2c.1-11.5-4.8-16.1-13.1-16.1"/><path class="st1" d="M224.9 21.3c-6.7 0-13.5.8-19.5 2.1l1.8 10.5c4-.8 9.3-1.6 12.9-1.6 6.4 0 7.7 1.7 7.7 5.9V40c-2.4-.1-4.8-.3-7.5-.3-10.3 0-18.3 5.8-18.3 16.2 0 9.6 6.6 13.5 13.8 13.5 5.4 0 9.5-2.8 12.9-5.2l1.3 4.6h12.7V39.7c0-14.3-8.1-18.4-17.8-18.4m2.8 34.6c-2.4 1.6-4.8 2.4-7.1 2.4-2.7 0-4.8-1.1-4.8-3.8 0-4.6 3.8-5.2 7.4-5.2 1.5 0 2.9.1 4.6.2v6.4zM275.4 41l-5.4-2c-3.7-1.4-6-2.2-6-4.4 0-1.9 1.6-2.8 4.6-2.8 4 0 10.1 1.3 13.7 2.1l1.8-10.5c-4-.9-10.8-2.4-17.8-2.4-9.5 0-16.8 5.4-16.8 14.9 0 7.7 4.4 10.9 12.1 13.7l4.6 1.7c4.1 1.5 5.3 2 5.3 4.1 0 2.5-2.9 2.9-5.4 2.9-4.4 0-10.4-1.4-14-2l-2 11c4 .9 11.3 2.1 17.4 2.1 12.5 0 18.8-5.5 18.8-14.2-.2-5.5-2.2-10.9-10.9-14.2M186.7 53.2V32.7h9.3V21.9h-9.3V9l-15.2 2v45.9c0 9.3 6.4 12.6 13 12.6 3.4 0 7.4-.5 12.1-1.5V57.1c-2.5.5-4.2.7-5.8.7-2.7 0-4.1-1.2-4.1-4.6"/><path class="st0" d="M154.1 0c-4.7 0-8.2 3.8-8.2 8.5s3.7 8.4 8.4 8.4 8.5-3.7 8.5-8.4-4-8.5-8.7-8.5M25.9 41l-5.4-2c-3.7-1.4-6-2.2-6-4.4 0-1.9 1.6-2.8 4.6-2.8 4 0 10.1 1.3 13.7 2.1l1.8-10.5c-4-.9-10.8-2.4-17.8-2.4C7.3 21 0 26.4 0 35.9c0 7.7 4.4 10.9 12.1 13.7l4.6 1.7c4.1 1.5 5.3 2 5.3 4.1 0 2.5-2.9 2.9-5.4 2.9-4.4 0-10.4-1.4-14.1-2l-2 11c4 .9 11.3 2.1 17.4 2.1 12.5 0 18.8-5.5 18.8-14.2-.1-5.5-2-10.9-10.8-14.2M64.3 21.3c-6.7 0-13.5.8-19.5 2.1l1.8 10.5c4-.8 9.3-1.6 12.9-1.6 6.4 0 7.7 1.7 7.7 5.9V40c-2.5-.1-4.8-.3-7.5-.3-10.3 0-18.4 5.8-18.4 16.2 0 9.6 6.6 13.5 13.8 13.5 5.4 0 9.5-2.8 12.9-5.2l1.3 4.6H82V39.7c.1-14.3-8-18.4-17.7-18.4m2.8 34.6c-2.4 1.6-4.8 2.4-7.2 2.4-2.6 0-4.8-1.1-4.8-3.8 0-4.6 3.8-5.2 7.4-5.2 1.5 0 2.9.1 4.6.2v6.4zM141.2 32.7h5.8v36.1h15.2V21.9h-21zM121.2 21.1c-7.7 0-13 3.7-16.8 6.4l-1.4-5.6H91.1v46.9h15.1V38.4c1.8-1.9 5.4-3.6 8.2-3.6 2.9 0 4.9.9 4.9 5.4v28.6h15.1V37.2c0-11.6-4.9-16.1-13.2-16.1"/><path class="st1" d="M224.8 21.3c-6.7 0-13.5.8-19.5 2.1l1.8 10.5c4-.8 9.3-1.6 12.9-1.6 6.4 0 7.7 1.7 7.7 5.9V40c-2.4-.1-4.8-.3-7.5-.3-10.3 0-18.4 5.8-18.4 16.2 0 9.6 6.6 13.5 13.8 13.5 5.4 0 9.5-2.8 12.9-5.2l1.3 4.6h12.7V39.7c.1-14.3-7.9-18.4-17.7-18.4m2.9 34.6c-2.4 1.6-4.8 2.4-7.1 2.4-2.7 0-4.8-1.1-4.8-3.8 0-4.6 3.8-5.2 7.4-5.2 1.5 0 2.9.1 4.6.2v6.4zM275.3 41l-5.4-2c-3.7-1.4-6-2.2-6-4.4 0-1.9 1.6-2.8 4.6-2.8 4 0 10.1 1.3 13.7 2.1l1.8-10.5c-4-.9-10.8-2.4-17.8-2.4-9.5 0-16.8 5.4-16.8 14.9 0 7.7 4.4 10.9 12.1 13.7l4.6 1.7c4.1 1.5 5.3 2 5.3 4.1 0 2.5-2.9 2.9-5.4 2.9-4.4 0-10.4-1.4-14-2l-2 11c4 .9 11.3 2.1 17.4 2.1 12.5 0 18.8-5.5 18.8-14.2-.1-5.5-2.1-10.9-10.9-14.2M186.7 53.2V32.7h9.3V21.9h-9.3V9l-15.2 2v45.9c0 9.3 6.4 12.6 13 12.6 3.4 0 7.4-.5 12.1-1.5V57.1c-2.5.5-4.2.7-5.8.7-2.7 0-4.1-1.2-4.1-4.6"/></svg>