<?xml version="1.0" encoding="utf-8"?>
<!-- Generator: Adobe Illustrator 19.2.0, SVG Export Plug-In . SVG Version: 6.00 Build 0)  -->
<svg version="1.1" id="Ebene_1" xmlns="http://www.w3.org/2000/svg" xmlns:xlink="http://www.w3.org/1999/xlink" x="0px" y="0px"
	 viewBox="0 0 286.1 69.4" style="enable-background:new 0 0 286.1 69.4;" xml:space="preserve">
<style type="text/css">
	.st0{clip-path:url(#SVGID_2_);fill:#00795D;}
	.st1{clip-path:url(#SVGID_2_);fill:#65B32E;}
</style>
<g>
	<defs>
		<rect id="SVGID_1_" y="0" width="286.1" height="69.4"/>
	</defs>
	<clipPath id="SVGID_2_">
		<use xlink:href="#SVGID_1_"  style="overflow:visible;"/>
	</clipPath>
	<path class="st0" d="M154.1,0c-4.7,0-8.2,3.8-8.2,8.5c0,4.7,3.7,8.4,8.4,8.4c4.7,0,8.5-3.7,8.5-8.4C162.8,3.8,158.8,0,154.1,0"/>
	<path class="st0" d="M26,41l-5.4-2c-3.7-1.4-6-2.2-6-4.4c0-1.9,1.6-2.8,4.6-2.8c4,0,10.1,1.3,13.7,2.1l1.8-10.5
		c-4-0.9-10.8-2.4-17.8-2.4C7.3,21,0,26.4,0,35.9c0,7.7,4.4,10.9,12.1,13.7l4.6,1.7c4.1,1.5,5.3,2,5.3,4.1c0,2.5-2.9,2.9-5.4,2.9
		c-4.4,0-10.4-1.4-14.1-2l-2,11c4,0.9,11.3,2.1,17.4,2.1c12.5,0,18.8-5.5,18.8-14.2C36.7,49.7,34.7,44.3,26,41"/>
	<path class="st0" d="M64.3,21.3c-6.7,0-13.5,0.8-19.5,2.1l1.8,10.5c4-0.8,9.3-1.6,12.9-1.6c6.4,0,7.7,1.7,7.7,5.9V40
		c-2.5-0.1-4.8-0.3-7.5-0.3c-10.3,0-18.4,5.8-18.4,16.2c0,9.6,6.6,13.5,13.8,13.5c5.4,0,9.5-2.8,12.9-5.2l1.3,4.6h12.7V39.7
		C82.2,25.4,74.1,21.3,64.3,21.3 M67.2,55.9c-2.4,1.6-4.8,2.4-7.2,2.4c-2.6,0-4.8-1.1-4.8-3.8c0-4.6,3.8-5.2,7.4-5.2
		c1.5,0,2.9,0.1,4.6,0.2V55.9z"/>
	<polygon class="st0" points="141.3,32.7 147.1,32.7 147.1,68.8 162.2,68.8 162.2,21.9 141.3,21.9 	"/>
	<path class="st0" d="M121.3,21.1c-7.7,0-13,3.7-16.8,6.4l-1.4-5.6H91.1v46.9h15.1V38.4c1.8-1.9,5.4-3.6,8.2-3.6
		c2.9,0,4.9,0.9,4.9,5.4v28.6h15.1V37.2C134.5,25.7,129.6,21.1,121.3,21.1"/>
	<path class="st1" d="M224.9,21.3c-6.7,0-13.5,0.8-19.5,2.1l1.8,10.5c4-0.8,9.3-1.6,12.9-1.6c6.4,0,7.7,1.7,7.7,5.9V40
		c-2.4-0.1-4.8-0.3-7.5-0.3c-10.3,0-18.3,5.8-18.3,16.2c0,9.6,6.6,13.5,13.8,13.5c5.4,0,9.5-2.8,12.9-5.2l1.3,4.6h12.7V39.7
		C242.7,25.4,234.6,21.3,224.9,21.3 M227.7,55.9c-2.4,1.6-4.8,2.4-7.1,2.4c-2.7,0-4.8-1.1-4.8-3.8c0-4.6,3.8-5.2,7.4-5.2
		c1.5,0,2.9,0.1,4.6,0.2V55.9z"/>
	<path class="st1" d="M275.4,41l-5.4-2c-3.7-1.4-6-2.2-6-4.4c0-1.9,1.6-2.8,4.6-2.8c4,0,10.1,1.3,13.7,2.1l1.8-10.5
		c-4-0.9-10.8-2.4-17.8-2.4c-9.5,0-16.8,5.4-16.8,14.9c0,7.7,4.4,10.9,12.1,13.7l4.6,1.7c4.1,1.5,5.3,2,5.3,4.1
		c0,2.5-2.9,2.9-5.4,2.9c-4.4,0-10.4-1.4-14-2l-2,11c4,0.9,11.3,2.1,17.4,2.1c12.5,0,18.8-5.5,18.8-14.2
		C286.1,49.7,284.1,44.3,275.4,41"/>
	<path class="st1" d="M186.7,53.2V32.7h9.3V21.9h-9.3V9l-15.2,2v45.9c0,9.3,6.4,12.6,13,12.6c3.4,0,7.4-0.5,12.1-1.5V57.1
		c-2.5,0.5-4.2,0.7-5.8,0.7C188.1,57.8,186.7,56.6,186.7,53.2"/>
	<path class="st0" d="M154.1,0c-4.7,0-8.2,3.8-8.2,8.5c0,4.7,3.7,8.4,8.4,8.4c4.7,0,8.5-3.7,8.5-8.4C162.8,3.8,158.8,0,154.1,0"/>
	<path class="st0" d="M25.9,41l-5.4-2c-3.7-1.4-6-2.2-6-4.4c0-1.9,1.6-2.8,4.6-2.8c4,0,10.1,1.3,13.7,2.1l1.8-10.5
		c-4-0.9-10.8-2.4-17.8-2.4C7.3,21,0,26.4,0,35.9c0,7.7,4.4,10.9,12.1,13.7l4.6,1.7c4.1,1.5,5.3,2,5.3,4.1c0,2.5-2.9,2.9-5.4,2.9
		c-4.4,0-10.4-1.4-14.1-2l-2,11c4,0.9,11.3,2.1,17.4,2.1c12.5,0,18.8-5.5,18.8-14.2C36.6,49.7,34.7,44.3,25.9,41"/>
	<path class="st0" d="M64.3,21.3c-6.7,0-13.5,0.8-19.5,2.1l1.8,10.5c4-0.8,9.3-1.6,12.9-1.6c6.4,0,7.7,1.7,7.7,5.9V40
		c-2.5-0.1-4.8-0.3-7.5-0.3c-10.3,0-18.4,5.8-18.4,16.2c0,9.6,6.6,13.5,13.8,13.5c5.4,0,9.5-2.8,12.9-5.2l1.3,4.6h12.7V39.7
		C82.1,25.4,74,21.3,64.3,21.3 M67.1,55.9c-2.4,1.6-4.8,2.4-7.2,2.4c-2.6,0-4.8-1.1-4.8-3.8c0-4.6,3.8-5.2,7.4-5.2
		c1.5,0,2.9,0.1,4.6,0.2V55.9z"/>
	<polygon class="st0" points="141.2,32.7 147,32.7 147,68.8 162.2,68.8 162.2,21.9 141.2,21.9 	"/>
	<path class="st0" d="M121.2,21.1c-7.7,0-13,3.7-16.8,6.4l-1.4-5.6H91.1v46.9h15.1V38.4c1.8-1.9,5.4-3.6,8.2-3.6
		c2.9,0,4.9,0.9,4.9,5.4v28.6h15.1V37.2C134.4,25.6,129.5,21.1,121.2,21.1"/>
	<path class="st1" d="M224.8,21.3c-6.7,0-13.5,0.8-19.5,2.1l1.8,10.5c4-0.8,9.3-1.6,12.9-1.6c6.4,0,7.7,1.7,7.7,5.9V40
		c-2.4-0.1-4.8-0.3-7.5-0.3c-10.3,0-18.4,5.8-18.4,16.2c0,9.6,6.6,13.5,13.8,13.5c5.4,0,9.5-2.8,12.9-5.2l1.3,4.6h12.7V39.7
		C242.6,25.4,234.6,21.3,224.8,21.3 M227.7,55.9c-2.4,1.6-4.8,2.4-7.1,2.4c-2.7,0-4.8-1.1-4.8-3.8c0-4.6,3.8-5.2,7.4-5.2
		c1.5,0,2.9,0.1,4.6,0.2V55.9z"/>
	<path class="st1" d="M275.3,41l-5.4-2c-3.7-1.4-6-2.2-6-4.4c0-1.9,1.6-2.8,4.6-2.8c4,0,10.1,1.3,13.7,2.1l1.8-10.5
		c-4-0.9-10.8-2.4-17.8-2.4c-9.5,0-16.8,5.4-16.8,14.9c0,7.7,4.4,10.9,12.1,13.7l4.6,1.7c4.1,1.5,5.3,2,5.3,4.1
		c0,2.5-2.9,2.9-5.4,2.9c-4.4,0-10.4-1.4-14-2l-2,11c4,0.9,11.3,2.1,17.4,2.1c12.5,0,18.8-5.5,18.8-14.2
		C286.1,49.7,284.1,44.3,275.3,41"/>
	<path class="st1" d="M186.7,53.2V32.7h9.3V21.9h-9.3V9l-15.2,2v45.9c0,9.3,6.4,12.6,13,12.6c3.4,0,7.4-0.5,12.1-1.5V57.1
		c-2.5,0.5-4.2,0.7-5.8,0.7C188.1,57.8,186.7,56.6,186.7,53.2"/>
</g>
</svg>
